<svg xmlns="http://www.w3.org/2000/svg" viewBox="0 0 200 200" role="img" aria-labelledby="iconTitle iconDesc">
  <title id="iconTitle">The Guild Icon Only</title>
  <desc id="iconDesc">Shield outline in blue, shield filled, quill in white, and subtle code brackets at quill base.</desc>
  <defs>
    <style>
      .shield-fill { fill: #0B5CA0; }
      .shield-stroke { fill: none; stroke: #BFC6CF; stroke-width: 8; stroke-linejoin: round; }
      .quill { fill: #FFFFFF; }
      .code { fill: #FFFFFF; }
    </style>
  </defs>

  <!-- Shield fill -->
  <path class="shield-fill" d="
    M100,12
    C70,12 50,24 42,30
    V80
    C42,130 80,165 100,180
    C120,165 158,130 158,80
    V30
    C150,24 130,12 100,12
    Z"/>

  <!-- Shield border -->
  <path class="shield-stroke" d="
    M100,12
    C70,12 50,24 42,30
    V80
    C42,130 80,165 100,180
    C120,165 158,130 158,80
    V30
    C150,24 130,12 100,12
    Z"/>

  <!-- Quill -->
  <path class="quill" d="
    M110,50
    C95,65 70,90 70,120
    C70,140 90,150 110,145
    L112,140
    C100,143 85,138 85,120
    C85,100 105,75 120,60
    Z"/>

  <!-- Code brackets at the base of the quill -->
  <path class="code" d="M95,128 L102,132 L95,136 L98,132 Z"/> <!-- Left bracket -->
  <path class="code" d="M125,128 L118,132 L125,136 L122,132 Z"/> <!-- Right bracket -->
</svg>
